<mxfile host="app.diagrams.net" modified="2023-09-30T02:21:13.649Z" agent="Mozilla/5.0 (Windows NT 10.0; Win64; x64) AppleWebKit/537.36 (KHTML, like Gecko) Chrome/117.0.0.0 Safari/537.36" etag="09wbbhrYtD02Tbg5ilzC" version="21.8.2" type="github">
  <diagram id="R2lEEEUBdFMjLlhIrx00" name="Page-1">
    <mxGraphModel dx="2438" dy="1468" grid="1" gridSize="10" guides="1" tooltips="1" connect="1" arrows="1" fold="1" page="1" pageScale="1" pageWidth="850" pageHeight="1100" math="0" shadow="0" extFonts="Permanent Marker^https://fonts.googleapis.com/css?family=Permanent+Marker">
      <root>
        <mxCell id="0" />
        <mxCell id="1" parent="0" />
        <mxCell id="FLJVyjkGzFyfFpLI97TE-1" value="Employees" style="shape=table;startSize=30;container=1;collapsible=1;childLayout=tableLayout;fixedRows=1;rowLines=0;fontStyle=1;align=center;resizeLast=1;" vertex="1" parent="1">
          <mxGeometry x="150" y="200" width="610" height="360" as="geometry" />
        </mxCell>
        <mxCell id="FLJVyjkGzFyfFpLI97TE-2" value="" style="shape=tableRow;horizontal=0;startSize=0;swimlaneHead=0;swimlaneBody=0;fillColor=none;collapsible=0;dropTarget=0;points=[[0,0.5],[1,0.5]];portConstraint=eastwest;strokeColor=inherit;top=0;left=0;right=0;bottom=1;" vertex="1" parent="FLJVyjkGzFyfFpLI97TE-1">
          <mxGeometry y="30" width="610" height="30" as="geometry" />
        </mxCell>
        <mxCell id="FLJVyjkGzFyfFpLI97TE-3" value="PK" style="shape=partialRectangle;overflow=hidden;connectable=0;fillColor=none;strokeColor=inherit;top=0;left=0;bottom=0;right=0;fontStyle=1;" vertex="1" parent="FLJVyjkGzFyfFpLI97TE-2">
          <mxGeometry width="30" height="30" as="geometry">
            <mxRectangle width="30" height="30" as="alternateBounds" />
          </mxGeometry>
        </mxCell>
        <mxCell id="FLJVyjkGzFyfFpLI97TE-4" value="EmployeeID INT AUTO_INCREMENT " style="shape=partialRectangle;overflow=hidden;connectable=0;fillColor=none;align=left;strokeColor=inherit;top=0;left=0;bottom=0;right=0;spacingLeft=6;fontStyle=5;" vertex="1" parent="FLJVyjkGzFyfFpLI97TE-2">
          <mxGeometry x="30" width="580" height="30" as="geometry">
            <mxRectangle width="580" height="30" as="alternateBounds" />
          </mxGeometry>
        </mxCell>
        <mxCell id="FLJVyjkGzFyfFpLI97TE-5" value="" style="shape=tableRow;horizontal=0;startSize=0;swimlaneHead=0;swimlaneBody=0;fillColor=none;collapsible=0;dropTarget=0;points=[[0,0.5],[1,0.5]];portConstraint=eastwest;strokeColor=inherit;top=0;left=0;right=0;bottom=0;" vertex="1" parent="FLJVyjkGzFyfFpLI97TE-1">
          <mxGeometry y="60" width="610" height="30" as="geometry" />
        </mxCell>
        <mxCell id="FLJVyjkGzFyfFpLI97TE-6" value="" style="shape=partialRectangle;overflow=hidden;connectable=0;fillColor=none;strokeColor=inherit;top=0;left=0;bottom=0;right=0;" vertex="1" parent="FLJVyjkGzFyfFpLI97TE-5">
          <mxGeometry width="30" height="30" as="geometry">
            <mxRectangle width="30" height="30" as="alternateBounds" />
          </mxGeometry>
        </mxCell>
        <mxCell id="FLJVyjkGzFyfFpLI97TE-7" value="FirstName  VARCHAR(25) NOT NULL" style="shape=partialRectangle;overflow=hidden;connectable=0;fillColor=none;align=left;strokeColor=inherit;top=0;left=0;bottom=0;right=0;spacingLeft=6;" vertex="1" parent="FLJVyjkGzFyfFpLI97TE-5">
          <mxGeometry x="30" width="580" height="30" as="geometry">
            <mxRectangle width="580" height="30" as="alternateBounds" />
          </mxGeometry>
        </mxCell>
        <mxCell id="FLJVyjkGzFyfFpLI97TE-8" value="" style="shape=tableRow;horizontal=0;startSize=0;swimlaneHead=0;swimlaneBody=0;fillColor=none;collapsible=0;dropTarget=0;points=[[0,0.5],[1,0.5]];portConstraint=eastwest;strokeColor=inherit;top=0;left=0;right=0;bottom=0;" vertex="1" parent="FLJVyjkGzFyfFpLI97TE-1">
          <mxGeometry y="90" width="610" height="30" as="geometry" />
        </mxCell>
        <mxCell id="FLJVyjkGzFyfFpLI97TE-9" value="" style="shape=partialRectangle;overflow=hidden;connectable=0;fillColor=none;strokeColor=inherit;top=0;left=0;bottom=0;right=0;" vertex="1" parent="FLJVyjkGzFyfFpLI97TE-8">
          <mxGeometry width="30" height="30" as="geometry">
            <mxRectangle width="30" height="30" as="alternateBounds" />
          </mxGeometry>
        </mxCell>
        <mxCell id="FLJVyjkGzFyfFpLI97TE-10" value="LastName VARCHAR(25) NOT NULL" style="shape=partialRectangle;overflow=hidden;connectable=0;fillColor=none;align=left;strokeColor=inherit;top=0;left=0;bottom=0;right=0;spacingLeft=6;" vertex="1" parent="FLJVyjkGzFyfFpLI97TE-8">
          <mxGeometry x="30" width="580" height="30" as="geometry">
            <mxRectangle width="580" height="30" as="alternateBounds" />
          </mxGeometry>
        </mxCell>
        <mxCell id="FLJVyjkGzFyfFpLI97TE-11" value="" style="shape=tableRow;horizontal=0;startSize=0;swimlaneHead=0;swimlaneBody=0;fillColor=none;collapsible=0;dropTarget=0;points=[[0,0.5],[1,0.5]];portConstraint=eastwest;strokeColor=inherit;top=0;left=0;right=0;bottom=0;" vertex="1" parent="FLJVyjkGzFyfFpLI97TE-1">
          <mxGeometry y="120" width="610" height="30" as="geometry" />
        </mxCell>
        <mxCell id="FLJVyjkGzFyfFpLI97TE-12" value="" style="shape=partialRectangle;overflow=hidden;connectable=0;fillColor=none;strokeColor=inherit;top=0;left=0;bottom=0;right=0;" vertex="1" parent="FLJVyjkGzFyfFpLI97TE-11">
          <mxGeometry width="30" height="30" as="geometry">
            <mxRectangle width="30" height="30" as="alternateBounds" />
          </mxGeometry>
        </mxCell>
        <mxCell id="FLJVyjkGzFyfFpLI97TE-13" value="Position" style="shape=partialRectangle;overflow=hidden;connectable=0;fillColor=none;align=left;strokeColor=inherit;top=0;left=0;bottom=0;right=0;spacingLeft=6;" vertex="1" parent="FLJVyjkGzFyfFpLI97TE-11">
          <mxGeometry x="30" width="580" height="30" as="geometry">
            <mxRectangle width="580" height="30" as="alternateBounds" />
          </mxGeometry>
        </mxCell>
        <mxCell id="FLJVyjkGzFyfFpLI97TE-14" value="" style="shape=tableRow;horizontal=0;startSize=0;swimlaneHead=0;swimlaneBody=0;fillColor=none;collapsible=0;dropTarget=0;points=[[0,0.5],[1,0.5]];portConstraint=eastwest;strokeColor=inherit;top=0;left=0;right=0;bottom=0;" vertex="1" parent="FLJVyjkGzFyfFpLI97TE-1">
          <mxGeometry y="150" width="610" height="30" as="geometry" />
        </mxCell>
        <mxCell id="FLJVyjkGzFyfFpLI97TE-15" value="" style="shape=partialRectangle;overflow=hidden;connectable=0;fillColor=none;strokeColor=inherit;top=0;left=0;bottom=0;right=0;" vertex="1" parent="FLJVyjkGzFyfFpLI97TE-14">
          <mxGeometry width="30" height="30" as="geometry">
            <mxRectangle width="30" height="30" as="alternateBounds" />
          </mxGeometry>
        </mxCell>
        <mxCell id="FLJVyjkGzFyfFpLI97TE-16" value="ENUM(&#39;UNVERIFIED&#39;,&#39;MANAGER&#39;,&#39;ACCOUNTANT&#39;,&#39;CLERK&#39;,&#39;SECURITY_STAFF&#39;,&#39;ROOM_KEEPER&#39;)" style="shape=partialRectangle;overflow=hidden;connectable=0;fillColor=none;align=left;strokeColor=inherit;top=0;left=0;bottom=0;right=0;spacingLeft=6;" vertex="1" parent="FLJVyjkGzFyfFpLI97TE-14">
          <mxGeometry x="30" width="580" height="30" as="geometry">
            <mxRectangle width="580" height="30" as="alternateBounds" />
          </mxGeometry>
        </mxCell>
        <mxCell id="FLJVyjkGzFyfFpLI97TE-17" value="" style="shape=tableRow;horizontal=0;startSize=0;swimlaneHead=0;swimlaneBody=0;fillColor=none;collapsible=0;dropTarget=0;points=[[0,0.5],[1,0.5]];portConstraint=eastwest;strokeColor=inherit;top=0;left=0;right=0;bottom=0;" vertex="1" parent="FLJVyjkGzFyfFpLI97TE-1">
          <mxGeometry y="180" width="610" height="30" as="geometry" />
        </mxCell>
        <mxCell id="FLJVyjkGzFyfFpLI97TE-18" value="" style="shape=partialRectangle;overflow=hidden;connectable=0;fillColor=none;strokeColor=inherit;top=0;left=0;bottom=0;right=0;" vertex="1" parent="FLJVyjkGzFyfFpLI97TE-17">
          <mxGeometry width="30" height="30" as="geometry">
            <mxRectangle width="30" height="30" as="alternateBounds" />
          </mxGeometry>
        </mxCell>
        <mxCell id="FLJVyjkGzFyfFpLI97TE-19" value="DEFAULT &#39;UNVERIFIED&#39;" style="shape=partialRectangle;overflow=hidden;connectable=0;fillColor=none;align=left;strokeColor=inherit;top=0;left=0;bottom=0;right=0;spacingLeft=6;" vertex="1" parent="FLJVyjkGzFyfFpLI97TE-17">
          <mxGeometry x="30" width="580" height="30" as="geometry">
            <mxRectangle width="580" height="30" as="alternateBounds" />
          </mxGeometry>
        </mxCell>
        <mxCell id="FLJVyjkGzFyfFpLI97TE-20" value="" style="shape=tableRow;horizontal=0;startSize=0;swimlaneHead=0;swimlaneBody=0;fillColor=none;collapsible=0;dropTarget=0;points=[[0,0.5],[1,0.5]];portConstraint=eastwest;strokeColor=inherit;top=0;left=0;right=0;bottom=0;" vertex="1" parent="FLJVyjkGzFyfFpLI97TE-1">
          <mxGeometry y="210" width="610" height="30" as="geometry" />
        </mxCell>
        <mxCell id="FLJVyjkGzFyfFpLI97TE-21" value="" style="shape=partialRectangle;overflow=hidden;connectable=0;fillColor=none;strokeColor=inherit;top=0;left=0;bottom=0;right=0;" vertex="1" parent="FLJVyjkGzFyfFpLI97TE-20">
          <mxGeometry width="30" height="30" as="geometry">
            <mxRectangle width="30" height="30" as="alternateBounds" />
          </mxGeometry>
        </mxCell>
        <mxCell id="FLJVyjkGzFyfFpLI97TE-22" value="NOT NULL" style="shape=partialRectangle;overflow=hidden;connectable=0;fillColor=none;align=left;strokeColor=inherit;top=0;left=0;bottom=0;right=0;spacingLeft=6;" vertex="1" parent="FLJVyjkGzFyfFpLI97TE-20">
          <mxGeometry x="30" width="580" height="30" as="geometry">
            <mxRectangle width="580" height="30" as="alternateBounds" />
          </mxGeometry>
        </mxCell>
        <mxCell id="FLJVyjkGzFyfFpLI97TE-23" value="" style="shape=tableRow;horizontal=0;startSize=0;swimlaneHead=0;swimlaneBody=0;fillColor=none;collapsible=0;dropTarget=0;points=[[0,0.5],[1,0.5]];portConstraint=eastwest;strokeColor=inherit;top=0;left=0;right=0;bottom=0;" vertex="1" parent="FLJVyjkGzFyfFpLI97TE-1">
          <mxGeometry y="240" width="610" height="30" as="geometry" />
        </mxCell>
        <mxCell id="FLJVyjkGzFyfFpLI97TE-24" value="" style="shape=partialRectangle;overflow=hidden;connectable=0;fillColor=none;strokeColor=inherit;top=0;left=0;bottom=0;right=0;" vertex="1" parent="FLJVyjkGzFyfFpLI97TE-23">
          <mxGeometry width="30" height="30" as="geometry">
            <mxRectangle width="30" height="30" as="alternateBounds" />
          </mxGeometry>
        </mxCell>
        <mxCell id="FLJVyjkGzFyfFpLI97TE-25" value="contact_num INT DEFAULT -1 NOT NULL" style="shape=partialRectangle;overflow=hidden;connectable=0;fillColor=none;align=left;strokeColor=inherit;top=0;left=0;bottom=0;right=0;spacingLeft=6;" vertex="1" parent="FLJVyjkGzFyfFpLI97TE-23">
          <mxGeometry x="30" width="580" height="30" as="geometry">
            <mxRectangle width="580" height="30" as="alternateBounds" />
          </mxGeometry>
        </mxCell>
        <mxCell id="FLJVyjkGzFyfFpLI97TE-26" value="" style="shape=tableRow;horizontal=0;startSize=0;swimlaneHead=0;swimlaneBody=0;fillColor=none;collapsible=0;dropTarget=0;points=[[0,0.5],[1,0.5]];portConstraint=eastwest;strokeColor=inherit;top=0;left=0;right=0;bottom=0;" vertex="1" parent="FLJVyjkGzFyfFpLI97TE-1">
          <mxGeometry y="270" width="610" height="30" as="geometry" />
        </mxCell>
        <mxCell id="FLJVyjkGzFyfFpLI97TE-27" value="" style="shape=partialRectangle;overflow=hidden;connectable=0;fillColor=none;strokeColor=inherit;top=0;left=0;bottom=0;right=0;" vertex="1" parent="FLJVyjkGzFyfFpLI97TE-26">
          <mxGeometry width="30" height="30" as="geometry">
            <mxRectangle width="30" height="30" as="alternateBounds" />
          </mxGeometry>
        </mxCell>
        <mxCell id="FLJVyjkGzFyfFpLI97TE-28" value="password VARCHAR(25) NOT NULL" style="shape=partialRectangle;overflow=hidden;connectable=0;fillColor=none;align=left;strokeColor=inherit;top=0;left=0;bottom=0;right=0;spacingLeft=6;" vertex="1" parent="FLJVyjkGzFyfFpLI97TE-26">
          <mxGeometry x="30" width="580" height="30" as="geometry">
            <mxRectangle width="580" height="30" as="alternateBounds" />
          </mxGeometry>
        </mxCell>
        <mxCell id="FLJVyjkGzFyfFpLI97TE-29" value="" style="shape=tableRow;horizontal=0;startSize=0;swimlaneHead=0;swimlaneBody=0;fillColor=none;collapsible=0;dropTarget=0;points=[[0,0.5],[1,0.5]];portConstraint=eastwest;strokeColor=inherit;top=0;left=0;right=0;bottom=0;" vertex="1" parent="FLJVyjkGzFyfFpLI97TE-1">
          <mxGeometry y="300" width="610" height="30" as="geometry" />
        </mxCell>
        <mxCell id="FLJVyjkGzFyfFpLI97TE-30" value="" style="shape=partialRectangle;overflow=hidden;connectable=0;fillColor=none;strokeColor=inherit;top=0;left=0;bottom=0;right=0;" vertex="1" parent="FLJVyjkGzFyfFpLI97TE-29">
          <mxGeometry width="30" height="30" as="geometry">
            <mxRectangle width="30" height="30" as="alternateBounds" />
          </mxGeometry>
        </mxCell>
        <mxCell id="FLJVyjkGzFyfFpLI97TE-31" value="isEmployedCurrently BOOLEAN NOT NULL DEFAULT TRUE" style="shape=partialRectangle;overflow=hidden;connectable=0;fillColor=none;align=left;strokeColor=inherit;top=0;left=0;bottom=0;right=0;spacingLeft=6;" vertex="1" parent="FLJVyjkGzFyfFpLI97TE-29">
          <mxGeometry x="30" width="580" height="30" as="geometry">
            <mxRectangle width="580" height="30" as="alternateBounds" />
          </mxGeometry>
        </mxCell>
        <mxCell id="FLJVyjkGzFyfFpLI97TE-32" value="" style="shape=tableRow;horizontal=0;startSize=0;swimlaneHead=0;swimlaneBody=0;fillColor=none;collapsible=0;dropTarget=0;points=[[0,0.5],[1,0.5]];portConstraint=eastwest;strokeColor=inherit;top=0;left=0;right=0;bottom=0;" vertex="1" parent="FLJVyjkGzFyfFpLI97TE-1">
          <mxGeometry y="330" width="610" height="30" as="geometry" />
        </mxCell>
        <mxCell id="FLJVyjkGzFyfFpLI97TE-33" value="" style="shape=partialRectangle;overflow=hidden;connectable=0;fillColor=none;strokeColor=inherit;top=0;left=0;bottom=0;right=0;" vertex="1" parent="FLJVyjkGzFyfFpLI97TE-32">
          <mxGeometry width="30" height="30" as="geometry">
            <mxRectangle width="30" height="30" as="alternateBounds" />
          </mxGeometry>
        </mxCell>
        <mxCell id="FLJVyjkGzFyfFpLI97TE-34" value="isAdminAuthorityLevel BOOLEAN NOT NULL DEFAULT FALSE" style="shape=partialRectangle;overflow=hidden;connectable=0;fillColor=none;align=left;strokeColor=inherit;top=0;left=0;bottom=0;right=0;spacingLeft=6;" vertex="1" parent="FLJVyjkGzFyfFpLI97TE-32">
          <mxGeometry x="30" width="580" height="30" as="geometry">
            <mxRectangle width="580" height="30" as="alternateBounds" />
          </mxGeometry>
        </mxCell>
        <mxCell id="FLJVyjkGzFyfFpLI97TE-35" value="Reservations" style="shape=table;startSize=30;container=1;collapsible=1;childLayout=tableLayout;fixedRows=1;rowLines=0;fontStyle=1;align=center;resizeLast=1;" vertex="1" parent="1">
          <mxGeometry x="-520" y="200" width="430" height="180" as="geometry" />
        </mxCell>
        <mxCell id="FLJVyjkGzFyfFpLI97TE-36" value="" style="shape=tableRow;horizontal=0;startSize=0;swimlaneHead=0;swimlaneBody=0;fillColor=none;collapsible=0;dropTarget=0;points=[[0,0.5],[1,0.5]];portConstraint=eastwest;strokeColor=inherit;top=0;left=0;right=0;bottom=1;" vertex="1" parent="FLJVyjkGzFyfFpLI97TE-35">
          <mxGeometry y="30" width="430" height="30" as="geometry" />
        </mxCell>
        <mxCell id="FLJVyjkGzFyfFpLI97TE-37" value="PK" style="shape=partialRectangle;overflow=hidden;connectable=0;fillColor=none;strokeColor=inherit;top=0;left=0;bottom=0;right=0;fontStyle=1;" vertex="1" parent="FLJVyjkGzFyfFpLI97TE-36">
          <mxGeometry width="30" height="30" as="geometry">
            <mxRectangle width="30" height="30" as="alternateBounds" />
          </mxGeometry>
        </mxCell>
        <mxCell id="FLJVyjkGzFyfFpLI97TE-38" value="ReservationID INT AUTO_INCREMENT " style="shape=partialRectangle;overflow=hidden;connectable=0;fillColor=none;align=left;strokeColor=inherit;top=0;left=0;bottom=0;right=0;spacingLeft=6;fontStyle=5;" vertex="1" parent="FLJVyjkGzFyfFpLI97TE-36">
          <mxGeometry x="30" width="400" height="30" as="geometry">
            <mxRectangle width="400" height="30" as="alternateBounds" />
          </mxGeometry>
        </mxCell>
        <mxCell id="FLJVyjkGzFyfFpLI97TE-39" value="" style="shape=tableRow;horizontal=0;startSize=0;swimlaneHead=0;swimlaneBody=0;fillColor=none;collapsible=0;dropTarget=0;points=[[0,0.5],[1,0.5]];portConstraint=eastwest;strokeColor=inherit;top=0;left=0;right=0;bottom=0;" vertex="1" parent="FLJVyjkGzFyfFpLI97TE-35">
          <mxGeometry y="60" width="430" height="30" as="geometry" />
        </mxCell>
        <mxCell id="FLJVyjkGzFyfFpLI97TE-40" value="" style="shape=partialRectangle;overflow=hidden;connectable=0;fillColor=none;strokeColor=inherit;top=0;left=0;bottom=0;right=0;" vertex="1" parent="FLJVyjkGzFyfFpLI97TE-39">
          <mxGeometry width="30" height="30" as="geometry">
            <mxRectangle width="30" height="30" as="alternateBounds" />
          </mxGeometry>
        </mxCell>
        <mxCell id="FLJVyjkGzFyfFpLI97TE-41" value="ReservationDateTime DATETIME NOT NULL" style="shape=partialRectangle;overflow=hidden;connectable=0;fillColor=none;align=left;strokeColor=inherit;top=0;left=0;bottom=0;right=0;spacingLeft=6;" vertex="1" parent="FLJVyjkGzFyfFpLI97TE-39">
          <mxGeometry x="30" width="400" height="30" as="geometry">
            <mxRectangle width="400" height="30" as="alternateBounds" />
          </mxGeometry>
        </mxCell>
        <mxCell id="FLJVyjkGzFyfFpLI97TE-42" value="" style="shape=tableRow;horizontal=0;startSize=0;swimlaneHead=0;swimlaneBody=0;fillColor=none;collapsible=0;dropTarget=0;points=[[0,0.5],[1,0.5]];portConstraint=eastwest;strokeColor=inherit;top=0;left=0;right=0;bottom=0;" vertex="1" parent="FLJVyjkGzFyfFpLI97TE-35">
          <mxGeometry y="90" width="430" height="30" as="geometry" />
        </mxCell>
        <mxCell id="FLJVyjkGzFyfFpLI97TE-43" value="" style="shape=partialRectangle;overflow=hidden;connectable=0;fillColor=none;strokeColor=inherit;top=0;left=0;bottom=0;right=0;" vertex="1" parent="FLJVyjkGzFyfFpLI97TE-42">
          <mxGeometry width="30" height="30" as="geometry">
            <mxRectangle width="30" height="30" as="alternateBounds" />
          </mxGeometry>
        </mxCell>
        <mxCell id="FLJVyjkGzFyfFpLI97TE-44" value="PartySize INT DEFAULT 1" style="shape=partialRectangle;overflow=hidden;connectable=0;fillColor=none;align=left;strokeColor=inherit;top=0;left=0;bottom=0;right=0;spacingLeft=6;" vertex="1" parent="FLJVyjkGzFyfFpLI97TE-42">
          <mxGeometry x="30" width="400" height="30" as="geometry">
            <mxRectangle width="400" height="30" as="alternateBounds" />
          </mxGeometry>
        </mxCell>
        <mxCell id="FLJVyjkGzFyfFpLI97TE-45" value="" style="shape=tableRow;horizontal=0;startSize=0;swimlaneHead=0;swimlaneBody=0;fillColor=none;collapsible=0;dropTarget=0;points=[[0,0.5],[1,0.5]];portConstraint=eastwest;strokeColor=inherit;top=0;left=0;right=0;bottom=0;" vertex="1" parent="FLJVyjkGzFyfFpLI97TE-35">
          <mxGeometry y="120" width="430" height="30" as="geometry" />
        </mxCell>
        <mxCell id="FLJVyjkGzFyfFpLI97TE-46" value="" style="shape=partialRectangle;overflow=hidden;connectable=0;fillColor=none;strokeColor=inherit;top=0;left=0;bottom=0;right=0;" vertex="1" parent="FLJVyjkGzFyfFpLI97TE-45">
          <mxGeometry width="30" height="30" as="geometry">
            <mxRectangle width="30" height="30" as="alternateBounds" />
          </mxGeometry>
        </mxCell>
        <mxCell id="FLJVyjkGzFyfFpLI97TE-47" value="TableNumber INT NOT NULL" style="shape=partialRectangle;overflow=hidden;connectable=0;fillColor=none;align=left;strokeColor=inherit;top=0;left=0;bottom=0;right=0;spacingLeft=6;" vertex="1" parent="FLJVyjkGzFyfFpLI97TE-45">
          <mxGeometry x="30" width="400" height="30" as="geometry">
            <mxRectangle width="400" height="30" as="alternateBounds" />
          </mxGeometry>
        </mxCell>
        <mxCell id="FLJVyjkGzFyfFpLI97TE-48" value="" style="shape=tableRow;horizontal=0;startSize=0;swimlaneHead=0;swimlaneBody=0;fillColor=none;collapsible=0;dropTarget=0;points=[[0,0.5],[1,0.5]];portConstraint=eastwest;strokeColor=inherit;top=0;left=0;right=0;bottom=0;" vertex="1" parent="FLJVyjkGzFyfFpLI97TE-35">
          <mxGeometry y="150" width="430" height="30" as="geometry" />
        </mxCell>
        <mxCell id="FLJVyjkGzFyfFpLI97TE-49" value="" style="shape=partialRectangle;overflow=hidden;connectable=0;fillColor=none;strokeColor=inherit;top=0;left=0;bottom=0;right=0;" vertex="1" parent="FLJVyjkGzFyfFpLI97TE-48">
          <mxGeometry width="30" height="30" as="geometry">
            <mxRectangle width="30" height="30" as="alternateBounds" />
          </mxGeometry>
        </mxCell>
        <mxCell id="FLJVyjkGzFyfFpLI97TE-50" value="Status ENUM(&#39;Confirmed&#39;,&#39;Pending&#39;,&#39;Cancelled&#39;) DEFAULT &#39;pending&#39;" style="shape=partialRectangle;overflow=hidden;connectable=0;fillColor=none;align=left;strokeColor=inherit;top=0;left=0;bottom=0;right=0;spacingLeft=6;" vertex="1" parent="FLJVyjkGzFyfFpLI97TE-48">
          <mxGeometry x="30" width="400" height="30" as="geometry">
            <mxRectangle width="400" height="30" as="alternateBounds" />
          </mxGeometry>
        </mxCell>
      </root>
    </mxGraphModel>
  </diagram>
</mxfile>
